<?xml version="1.0" encoding="iso-8859-1"?>
<!-- Generator: Adobe Illustrator 19.0.0, SVG Export Plug-In . SVG Version: 6.00 Build 0)  -->
<svg version="1.1" id="Capa_1" xmlns="http://www.w3.org/2000/svg" xmlns:xlink="http://www.w3.org/1999/xlink" x="0px" y="0px"
	 viewBox="0 0 436.907 436.907" style="enable-background:new 0 0 436.907 436.907;" xml:space="preserve">
<circle style="fill:#45B39C;" cx="218.453" cy="218.453" r="218.453"/>
<path style="opacity:0.1;enable-background:new    ;" d="M433.434,257.07L305.957,129.593l-3.345,2.628l-10.752-10.787
	c-0.99-0.136-2.014-0.205-3.038-0.205h-10.855v9.011l27.819,27.819h-4.233l-36.83-36.83h-8.636l-19.729-19.729
	c0,0-8.533-2.833-14.438-1.843l-1.57-1.604c0,0-12.049-1.092-13.312,8.158c0,0-11.537,2.97-10.001,15.804l1.434,1.434v6.792
	l1.229,1.229c0.376,2.39,0.922,4.54,1.809,6.042l-16.316-16.282h-13.243v9.011l33.894,33.894l-2.935,1.298l-44.203-44.203h-10.752
	c-1.092,0-2.117,0.068-3.14,0.239l1.297,8.909l41.984,41.984c-2.151,1.775-3.618,4.369-3.926,7.305l-0.205,1.638l-46.08-46.08
	l-7.134-5.53c-2.97,3.823-4.54,8.431-4.54,13.278v1.946l55.637,55.603l-0.41,3.755l98.782,98.816h-0.034l-144.93-144.93h-9.046
	v13.244l142.302,142.302c-0.034,0.171-0.136,0.341-0.136,0.546L268,317.428L135.256,184.684h-9.046v13.244l121.549,121.514h-4.232
	L135.256,211.171h-9.046v13.244l9.728,9.728c-1.707-0.17-3.447-0.17-5.018,0.103l-1.57-1.604c0,0-12.015-1.092-13.312,8.158
	c0,0-11.503,2.97-10.001,15.804l2.116,2.116c0.102,5.427,0.819,13.653,4.096,15.121c0,0-0.239-1.058-0.512-2.628
	c2.117,6.587,5.359,13.653,10.07,17.783v6.417l-6.793,3.242l-15.633,6.929c-3.413,1.502-5.769,4.813-6.213,8.67l-2.731,24.61
	l95.639,95.639c10.566,1.57,21.373,2.404,32.376,2.404C325.917,436.907,415.19,359.289,433.434,257.07z"/>
<g>
	<polygon style="fill:#EBF0F3;" points="310.565,328.478 299.287,328.478 299.287,319.455 301.543,319.455 301.543,317.2 
		310.565,317.2 	"/>
	<path style="fill:#EBF0F3;" d="M284.579,328.478h-14.708v-9.023h14.708V328.478z M255.163,328.478h-14.708v-9.023h14.708V328.478z
		 M225.746,328.478h-14.708v-9.023h14.708V328.478z M196.332,328.478h-14.708v-9.023h14.708V328.478z M166.916,328.478h-14.708
		v-9.023h14.708V328.478z"/>
	<polygon style="fill:#EBF0F3;" points="137.5,328.478 126.221,328.478 126.221,317.2 135.244,317.2 135.244,319.455 137.5,319.455 
			"/>
	<path style="fill:#EBF0F3;" d="M135.244,303.948h-9.023v-13.252h9.023V303.948z M310.565,303.846h-9.023v-13.252h9.023V303.846z
		 M135.244,277.439h-9.023v-13.252h9.023V277.439z M310.565,277.338h-9.023v-13.252h9.023V277.338z M135.244,250.935h-9.023v-13.252
		h9.023V250.935z M310.565,250.834h-9.023v-13.252h9.023V250.834z M135.244,224.426h-9.023v-13.252h9.023V224.426z M310.565,224.325
		h-9.023v-13.252h9.023V224.325z M135.244,197.922h-9.023V184.67h9.023V197.922z M310.565,197.821h-9.023v-13.256h9.023V197.821z
		 M135.244,171.414h-9.023v-13.252h9.023V171.414z M310.565,171.312h-9.023V158.06h9.023V171.312z M135.244,144.91h-9.023v-1.943
		c0-4.846,1.562-9.437,4.516-13.265l7.146,5.507c-1.727,2.238-2.639,4.921-2.639,7.758V144.91z M310.565,144.808h-9.023v-1.842
		c0-2.868-0.927-5.569-2.683-7.82l7.111-5.551c3.007,3.85,4.595,8.472,4.595,13.371V144.808z M146.108,130.38l-1.3-8.926
		c1.022-0.15,2.068-0.229,3.132-0.233h10.761v9.023h-10.736C147.349,130.248,146.721,130.292,146.108,130.38z M290.601,130.367
		c-0.582-0.079-1.176-0.123-1.782-0.123h-10.838v-9.023h10.838c1.029,0,2.042,0.07,3.033,0.211L290.601,130.367z M264.729,130.243
		h-13.254v-9.023h13.254V130.243z M238.223,130.243h-13.254v-9.023h13.254V130.243z M211.717,130.243h-13.254v-9.023h13.254V130.243
		z M185.208,130.243h-13.252v-9.023h13.252V130.243z"/>
</g>
<path style="fill:#CE412D;" d="M227.46,159.638l3.238,1.496l20.733,9.322c4.088,1.838,6.969,5.778,7.601,10.398l3.209,23.438
	h-80.809l2.725-24.64c0.426-3.853,2.797-7.167,6.204-8.672l22.289-9.846l2.451-0.855"/>
<path style="fill:#F6C358;" d="M224.042,170.221h-4.401c-3.778,0-6.841-3.063-6.841-6.841v-12.753h18.084v12.753
	C230.883,167.158,227.82,170.221,224.042,170.221z"/>
<path style="fill:#FCD462;" d="M244.495,121.155c-1.98,23.501-11.448,36.342-22.438,36.748
	c-18.133,0.67-22.878-36.748-22.878-36.748l17.459-13.074h12.133L244.495,121.155z"/>
<polygon style="fill:#F6C358;" points="212.799,175.62 217.869,204.291 225.939,204.291 230.883,175.518 221.711,167.994 "/>
<polyline style="fill:#31978C;" points="222.948,170.849 237.418,179.364 237.418,164.07 230.883,160.823 222.04,170.056 
	212.799,160.823 206.003,164.07 206.003,179.364 221.461,170.849 "/>
<path style="fill:#FCD462;" d="M239.837,125.732c0,0-2.17-8.135-2.852-10.408c0,0-4.8,8.44-2.059,9.847L239.837,125.732z"/>
<path style="fill:#3A556A;" d="M203.219,139.244c0,0-4.526-19.101,5.093-21.449c0,0,7.823,8.141,24.832,0.783
	c0,0,8.352,0,7.871,18.475c0,0,4.97-7.045,3.847-14.717l1.924,3.444c0,0-1.924-21.762-17.634-23.485c0,0,3.046-1.879,7.214-0.783
	c0,0-13.285-4.444-18.185-0.343c0,0-0.593-2.101,2.154-3.101c0,0-12.023-1.096-13.306,8.141c0,0-11.513,2.975-10.005,15.813
	c0,0,1.669-0.673,2.15-2.763C199.174,119.258,198.287,137.052,203.219,139.244z"/>
<path style="fill:#D15241;" d="M311.672,294.227l3.238,1.496l20.733,9.322c4.088,1.838,6.969,5.778,7.601,10.398l3.209,23.438
	h-80.809l2.725-24.64c0.426-3.853,2.797-7.167,6.204-8.672l22.289-9.846l2.451-0.855"/>
<path style="fill:#F6C358;" d="M308.254,304.81h-4.401c-3.778,0-6.841-3.063-6.841-6.841v-12.753h18.084v12.753
	C315.095,301.747,312.032,304.81,308.254,304.81z"/>
<path style="fill:#FCD462;" d="M328.706,255.743c-1.98,23.501-11.448,36.342-22.438,36.748
	c-18.133,0.67-22.878-36.748-22.878-36.748l17.459-13.074h12.133L328.706,255.743z"/>
<polygon style="fill:#F6C358;" points="297.011,310.209 302.081,338.879 310.151,338.879 315.095,310.107 305.922,302.583 "/>
<polyline style="fill:#3EA69B;" points="307.16,305.437 321.63,313.952 321.63,298.659 315.095,295.411 306.252,304.645 
	297.011,295.411 290.215,298.659 290.215,313.952 305.673,305.437 "/>
<path style="fill:#FCD462;" d="M324.049,260.321c0,0-2.17-8.135-2.852-10.408c0,0-4.8,8.44-2.059,9.847L324.049,260.321z"/>
<path style="fill:#3A556A;" d="M287.431,273.832c0,0-4.526-19.101,5.093-21.449c0,0,7.823,8.141,24.832,0.783
	c0,0,8.352,0,7.871,18.475c0,0,4.97-7.045,3.847-14.717l1.924,3.444c0,0-1.924-21.762-17.634-23.485c0,0,3.046-1.879,7.214-0.783
	c0,0-13.285-4.444-18.185-0.343c0,0-0.593-2.101,2.154-3.101c0,0-12.023-1.096-13.306,8.141c0,0-11.513,2.975-10.005,15.813
	c0,0,1.669-0.673,2.15-2.763C283.386,253.847,282.498,271.64,287.431,273.832z"/>
<path style="fill:#E56353;" d="M136.481,294.227l3.238,1.496l20.733,9.322c4.089,1.838,6.969,5.778,7.601,10.398l3.209,23.438
	H90.453l2.725-24.64c0.426-3.853,2.797-7.167,6.204-8.672l22.289-9.846l2.451-0.855"/>
<path style="fill:#F6C358;" d="M133.063,304.81h-4.401c-3.778,0-6.841-3.063-6.841-6.841v-12.753h18.084v12.753
	C139.905,301.747,136.842,304.81,133.063,304.81z"/>
<path style="fill:#FCD462;" d="M153.516,255.743c-1.98,23.501-11.449,36.342-22.438,36.748
	c-18.133,0.67-22.878-36.748-22.878-36.748l17.459-13.074h12.133L153.516,255.743z"/>
<polygon style="fill:#F6C358;" points="121.82,310.209 126.89,338.879 134.96,338.879 139.905,310.107 130.732,302.583 "/>
<polyline style="fill:#44C4A1;" points="131.97,305.437 146.439,313.952 146.439,298.659 139.905,295.411 131.061,304.645 
	121.82,295.411 115.024,298.659 115.024,313.952 130.483,305.437 "/>
<path style="fill:#FCD462;" d="M148.858,260.321c0,0-2.17-8.135-2.852-10.408c0,0-4.8,8.44-2.059,9.847L148.858,260.321z"/>
<path style="fill:#3A556A;" d="M112.24,273.832c0,0-4.526-19.101,5.093-21.449c0,0,7.823,8.141,24.832,0.783
	c0,0,8.352,0,7.871,18.475c0,0,4.97-7.045,3.847-14.717l1.924,3.444c0,0-1.924-21.762-17.634-23.485c0,0,3.046-1.879,7.214-0.783
	c0,0-13.285-4.444-18.185-0.343c0,0-0.593-2.101,2.154-3.101c0,0-12.023-1.096-13.306,8.141c0,0-11.513,2.975-10.005,15.813
	c0,0,1.669-0.673,2.15-2.763C108.195,253.847,107.308,271.64,112.24,273.832z"/>
<g>
</g>
<g>
</g>
<g>
</g>
<g>
</g>
<g>
</g>
<g>
</g>
<g>
</g>
<g>
</g>
<g>
</g>
<g>
</g>
<g>
</g>
<g>
</g>
<g>
</g>
<g>
</g>
<g>
</g>
</svg>
